Patient4_TMGait_0pt3_02_right_19_EMG.mot
version=1
nRows=33
nColumns=33
inDegrees=no
endheader
time	1LAddLong	2LGlutMax	3LGlutMed	4LIliopsoas	5LSemiMemb	6LBicFemLong	7LRecFem	8LVastMed	9LVastLat	10LGasMed	11LTibAnt	12lTibPost	13LPeroneusLong	14LSol	15LExtDigLong	16LFlexDigLong	17RAddLong	18RGlutMax	19RGlutMed	20RIliopsoas	21RSemiMemb	22RBicFemLong	23RRecFem	24RVastMed	25RVastLat	26RGasMed	27RTibAnt	28RTibPost	29RPeroneusLong	30RSol	31RExtDigLong	32RFlexDigLong
36.735	-0.007782	-0.12756	0.002441	0.006714	0.009155	0.013123	0.067749	0.013275	0.002441	-0.081329	-0.01297	-0.007935	0.19577	0.68924	-0.036774	0.19745	0.084991	0.1297	0.24612	-0.04776	-0.1387	-0.058289	0.14435	-0.19073	-0.049286	-0.003662	0.11993	-0.003052	-1.0825	-0.12512	-0.000305	-0.008545
36.736	0.000305	-0.13184	-0.022736	0.004272	0.002899	0.009003	0.072479	0.008698	0.00946	-0.13382	-0.005493	-0.003662	0.080109	0.46906	-0.036926	-0.28946	0.065308	0.045319	0.26306	-0.035248	-0.19348	-0.10849	0.12924	-0.12787	-0.037842	0.005798	-0.048828	-0.002747	-1.2625	-0.12741	0.000305	-0.005188
36.737	-0.003815	-0.1535	-0.009155	0.009766	0.010986	0.014496	0.067139	0.011597	0.002136	-0.13794	-0.011139	-0.048676	0.008698	0.19577	-0.007935	-0.52383	0.02182	0.047913	0.27191	-0.042877	-0.31921	-0.09613	0.1326	-0.090332	-0.059814	0.011139	-0.14191	-0.006561	-1.1662	-0.055084	0.000458	-0.003357
36.738	-0.003204	-0.16052	-0.015564	-0.00061	0.020752	0.005035	0.065918	0.005646	0.007782	-0.085449	-0.007629	-0.027313	-0.099182	-0.47043	-0.013733	-0.088806	-0.012665	0.057373	0.25101	-0.033569	-0.22614	-0.13382	0.1442	-0.024109	-0.048523	-0.002136	0.060883	-0.000763	0.49606	0.018158	0.001526	-0.013428
36.739	-0.011292	-0.19272	-0.020447	0.008392	0.014801	0.019989	0.065002	0.016785	0.004272	-0.004425	-0.004578	-0.00473	-0.085144	-0.62729	-0.035553	-0.078125	-0.032349	-0.011749	0.19073	-0.027618	-0.088043	-0.31158	0.024261	0.10193	0.053406	-0.018768	0.19226	-0.00473	-0.12909	0.21622	0.001831	-0.015564
36.74	-0.000916	-0.25085	0.000763	0.009918	0.007477	0.015564	0.053101	0.005798	0.00824	0.066071	-0.014343	0.059052	0.00946	-0.35736	-0.015564	-0.1445	-0.017395	-0.032654	0.073853	-0.023346	0.27649	-0.48859	-0.053406	0.10025	0.13992	-0.02182	-0.009308	-0.007019	0.91232	0.073853	-0.000458	-0.018463
36.741	0.004883	-0.32364	0.013885	-0.001373	0.005951	0.025482	0.029297	0.003815	0.014954	0.007477	-0.01297	0.004578	-0.001831	-0.62882	0.016785	0.015411	0.001526	-0.07019	0.21271	-0.033264	0.10956	-0.56564	-0.090637	0.19287	0.14236	-0.006104	-0.15121	-0.005798	1.3832	-0.079651	0.000916	-0.015869
36.742	-0.005493	-0.33402	0.013123	-0.001526	0.01358	0.022736	0.038147	0.018616	0.020752	0.006104	-0.002747	-0.080109	-0.051727	-0.23178	0.020294	-0.14175	-0.021057	-0.07309	0.22842	-0.024719	-0.082855	-0.45792	-0.10315	0.13107	0.067749	0.00351	-0.033875	-0.002899	-0.1413	-0.088501	-0.006866	-0.006256
36.743	-0.004272	-0.3447	0.007477	0.007477	0.011597	0.007782	0.016937	0.006256	0.017548	0.003967	0.003967	0.085907	-0.047302	0.18341	0.003967	-0.27527	-0.038452	-0.027924	0.23239	-0.012665	0.019226	-0.38177	-0.095367	0.13351	0.091553	0.008087	0.14481	-0.001068	0.21149	-0.1683	0.003815	-0.001373
36.744	0.001526	-0.26413	-0.00946	0.003662	0.009155	0.003815	0.01236	0.014954	0.040436	-0.021057	-0.007019	0.058746	-0.073242	0.29999	0.006409	-0.1712	0.011139	-0.023956	0.2063	-0.008087	0.13763	-0.16983	0.000763	0.08255	0.11917	-0.003204	0.18219	-0.002594	0.54138	-0.14496	-0.003662	-0.000305
36.745	-0.00946	-0.24414	-0.019531	0.012512	0.007935	-0.001221	0.015717	0.006104	0.026093	0.00473	-0.00473	0.042572	-0.075684	0.33722	0.012665	-0.11337	0.018158	-0.077972	0.25024	-0.001373	-0.026398	0.27832	0.080261	-0.071564	0.11963	0.000153	-0.074615	-0.002747	0.063171	-0.090942	0.000763	-0.001068
36.746	0.000763	-0.26779	-0.014343	0.009155	0.003052	0.014496	-0.004578	0.009613	0.023956	0.032043	-0.002136	0.036011	-0.097046	0.3363	0.009918	-0.10544	-0.003662	-0.1059	0.30441	0.002594	-0.046844	0.30518	0.1944	-0.070648	0.14984	0.009918	-0.34485	-0.001984	-1.6725	-0.2945	-0.002441	-0.002136
36.747	0.003357	-0.35797	-0.013885	0.009613	0.011902	0.017853	0.025635	0.007172	0.034943	0.043488	-0.003967	0.046387	-0.10056	0.29953	0.001068	-0.0737	-0.097809	-0.10971	0.3122	-0.00824	-0.051575	0.35843	0.21072	-0.019531	0.22903	0.01297	-0.30304	-0.004272	-2.2247	-0.21744	-0.002136	0.001221
36.748	-0.005341	-0.41458	-0.014038	-0.002441	0.012207	0.020752	0.031586	0.01358	0.026855	0.071869	-0.002136	0.037079	-0.089722	0.25207	0.000153	-0.083771	-0.093842	-0.098419	0.34897	0.001526	-0.063019	0.21805	0.15305	0.002899	0.25055	0.00351	-0.23926	-0.010681	-0.58914	0.09964	-0.000458	-0.005341
36.749	0.000763	-0.44128	-0.022278	0.009308	0.011749	0.001831	0.038757	0.008545	0.021515	0.039368	-0.003662	0.032196	-0.098267	0.21439	0.019684	-0.05127	-0.069885	-0.11139	0.42114	-0.011749	-0.052795	0.1506	0.16937	0.26306	-0.00473	-0.012207	-0.20966	-0.006104	1.5703	0.30838	-0.001678	-0.005951
36.75	-0.001984	-0.4509	-0.010223	-0.004578	0.009918	0.017853	0.014038	0.014343	0.013123	-0.050201	-0.010529	0.009613	-0.14954	0.21576	0.023956	-0.052643	-0.057678	-0.12878	0.37231	-0.012512	0.14557	0.16419	0.21088	0.30304	-0.4126	-0.023041	-0.19104	-0.007629	1.2416	0.22507	0.001068	-0.007324
36.751	0.003357	-0.45471	-0.020752	0.012817	0.016785	0.00885	0.039368	0.014191	0.025787	-0.19623	-0.001373	0.020752	-0.18524	0.1712	0.031433	-0.063324	-0.024261	-0.1384	0.36041	-0.017395	0.17868	-0.041046	-0.0177	0.103	-0.24429	-0.028534	-0.1445	-0.001984	0.76141	0.17654	-0.000916	-0.010223
36.752	0.004883	-0.51346	-0.029449	0.012054	0.007782	0.001984	0.038757	0	0.064392	-0.16403	-0.003357	-0.013885	-0.21683	0.2417	0.030212	-0.041199	-0.032806	-0.16693	0.44266	-0.007477	0.13901	-0.15091	-0.41946	-0.066833	-0.10483	-0.02655	-0.049133	-0.003357	0.014648	0.10864	0.001526	-0.010986
36.753	-0.001373	-0.61371	-0.022278	0.001678	0.01709	-0.001678	0.047302	0.004425	0.058746	-0.073395	-0.001831	0.058594	-0.2684	0.26504	0.014038	-0.001068	-0.034943	-0.16602	0.42954	0.034332	0.087891	-0.072937	-0.24963	0.050507	-0.034943	-0.02533	0.005646	-0.003204	-0.38605	0.11627	0.001984	-0.010376
36.754	0.014343	-0.67001	-0.028076	-0.00061	0.014191	0.011444	0.04776	0.004425	0.038605	0.043488	0.001831	-0.002289	-0.16724	0.028687	-0.015869	-0.030823	-0.042877	-0.20264	0.43655	0.024567	0.026703	-0.066833	-0.036774	0.062103	0.014954	-0.004272	0.033569	-0.003662	-0.26062	0.16007	0.004272	-0.014343
36.755	-0.002747	-0.73074	-0.023346	0.013733	0.014038	0.003815	0.039673	0.005341	0.034485	0.10071	-0.010986	0.023499	-0.10147	0.06073	-0.000916	-0.080261	-0.040436	-0.26855	0.36453	0.019836	0.015717	-0.093231	-0.11063	-0.000153	0.094604	0.010834	0.065308	-0.002441	-0.27695	0.095215	0.003204	-0.014343
36.756	0.003357	-0.75882	-0.015564	0.005035	0.01709	0.014648	0.042572	0.007324	0.038757	0.055084	-0.008545	-0.39352	-0.054321	0.13306	-0.050049	-0.2095	-0.021362	-0.2948	0.26825	-0.003204	-0.010681	-0.1178	-0.090485	-0.066376	0.089874	0.000458	0.050049	-0.003357	-0.14297	0.054932	0.002289	-0.009003
36.757	-0.002747	-0.76706	-0.023804	0.005951	0.012817	0.00412	0.028992	0.005493	0.036011	0.086212	-0.005341	0.25909	-0.066528	-0.052185	-0.021057	-0.01236	-0.018921	-0.31494	0.16602	0.022125	-0.00946	-0.1712	-0.06012	-0.077209	0.062408	-0.023956	0.02655	-0.003204	0.24399	0.027313	0.001678	-0.011139
36.758	0.005798	-0.82687	-0.02243	0.009155	0.013123	0.023956	0.005798	0.013733	0.027924	0.069885	-0.005341	0.005188	-0.016632	-0.047913	0.068512	-0.023956	-0.005188	-0.36087	0.13886	0.031281	-0.011292	-0.13718	-0.010834	-0.050812	0.065002	-0.027924	0.015106	-0.009918	0.2002	-0.11276	0.000458	-0.005951
36.759	0.008545	-0.86762	-0.01297	0.00473	0.011597	0.007782	-0.008087	0.008392	0.041656	0.032654	-0.007324	-0.042572	-0.001068	0.28137	0.068512	-0.036774	0.017548	-0.36713	0.040131	0.032501	-0.004883	-0.10086	0.051727	-0.032196	0.050812	-0.022278	0.034485	-0.002441	-0.57892	-0.15366	-0.000916	-0.010071
36.76	-0.001373	-0.82001	-0.009308	-0.00412	0.015411	0.004272	-0.007477	0.010376	0.032806	-0.011902	-0.016632	-0.081482	0.005035	0.12421	0.032196	0.013275	0.007782	-0.34958	0.075073	-0.00946	-0.015717	0.007477	0.040741	0.067291	0.062256	-0.032654	0.060272	-0.009766	-0.075378	-0.086975	-0.001984	-0.007629
36.761	-0.00412	-0.80826	-0.015106	0.015106	0.016785	0.008392	-0.016327	0.015411	0.031281	-0.018005	-0.005188	-0.10025	-0.040894	-0.27206	0.005188	0.013275	0.019684	-0.37979	0.1506	-0.073242	-0.029907	0.033112	0.056	0.11063	0.082703	0.007324	0.019531	-0.010681	0.81894	-0.052643	-0.003357	-0.001984
36.762	-0.003967	-0.78125	-0.015411	-0.000458	0.016785	-0.001984	0.001526	0.005035	0.033875	-0.011902	0.001831	-0.097351	-0.06073	-0.47363	-0.006866	-0.023499	0.020752	-0.39856	0.13611	-0.076904	-0.035095	0.11414	0.086823	0.14984	0.050049	0.079651	-0.014038	0.002594	0.71838	-0.066681	-0.000916	-0.000916
36.763	-0.00412	-0.73959	-0.015564	0.006104	0.014191	-0.006714	0.013428	0.005188	0.049591	-0.009918	0.003204	-0.082245	-0.069275	-0.18448	0.015106	-0.014191	0.034637	-0.42816	0.19928	-0.038452	-0.065308	0.004272	0.10468	0.10803	0.001831	0.061951	0.005188	0.007477	0.17792	-0.091248	-0.001678	-0.006409
36.764	0	-0.72586	-0.024109	0.007324	0.011292	0.001526	-0.007019	0.004578	0.042419	-0.00061	-0.003052	-0.084839	-0.080109	-0.040588	0.016937	0.003662	0.036469	-0.43915	0.20889	-0.003967	-0.056152	-0.04303	0.00473	0.049286	0.43533	0.012817	0.057373	-0.000916	-0.52521	-0.073547	-0.001831	-0.00412
36.765	-0.007935	-0.72525	-0.013428	0.005341	0.007782	-0.002441	0.021515	0.006256	0.038605	0.00885	0.000916	-0.081482	-0.072327	-0.017548	0.040436	-0.02655	0.019531	-0.44327	0.30106	0.058136	-0.027771	-0.22964	-0.19806	0.092926	0.9021	-0.061646	0.13931	-0.00946	-0.69015	-0.10056	-0.002441	-0.007935
36.766	-0.003815	-0.67871	-0.009155	0.006866	0.005188	0.009766	0.002899	0.009766	0.027771	0.000305	0.000305	-0.091095	-0.039368	-0.018311	0.043335	-0.019379	-0.030212	-0.46829	0.32989	0.088196	0.084534	-0.18158	-0.19684	-0.01236	0.8577	-0.045776	0.20218	-0.013733	-0.14847	-0.16464	0.001678	-0.00885
36.767	-0.002441	-0.62515	-0.005951	0.009155	-0.002441	0.020142	-0.007324	0.006256	0.043945	0.006409	0.010376	-0.081482	-0.039215	-0.10407	0.039673	-0.031128	-0.000916	-0.49362	0.26733	0.086975	0.060272	-0.17258	-0.15045	-0.099792	0.43747	-0.021362	0.28091	-0.013123	0.49072	0.066833	-0.005798	-0.009766
